<svg width="24" height="24" viewBox="0 0 24 24" fill="none" xmlns="http://www.w3.org/2000/svg">
<g clip-path="url(#clip0_2_779)">
<path fill-rule="evenodd" clip-rule="evenodd" d="M15.5306 9.53063L13.0603 12L15.5306 14.4694C15.8237 14.7624 15.8237 15.2376 15.5306 15.5306C15.2376 15.8237 14.7624 15.8237 14.4694 15.5306L12 13.0603L9.53063 15.5306C9.23757 15.8237 8.76243 15.8237 8.46937 15.5306C8.17632 15.2376 8.17632 14.7624 8.46937 14.4694L10.9397 12L8.46937 9.53063C8.17632 9.23757 8.17632 8.76243 8.46937 8.46937C8.76243 8.17632 9.23757 8.17632 9.53063 8.46937L12 10.9397L14.4694 8.46937C14.7624 8.17632 15.2376 8.17632 15.5306 8.46937C15.8237 8.76243 15.8237 9.23757 15.5306 9.53063ZM21.75 12C21.75 17.3848 17.3848 21.75 12 21.75C6.61522 21.75 2.25 17.3848 2.25 12C2.25 6.61522 6.61522 2.25 12 2.25C17.3824 2.25568 21.7443 6.61758 21.75 12ZM20.25 12C20.25 7.44365 16.5563 3.75 12 3.75C7.44365 3.75 3.75 7.44365 3.75 12C3.75 16.5563 7.44365 20.25 12 20.25C16.5542 20.2448 20.2448 16.5542 20.25 12Z" fill="#994D52"/>
</g>
<defs>
<clipPath id="clip0_2_779">
<rect width="24" height="24" fill="white"/>
</clipPath>
</defs>
</svg>
