<svg width="24" height="24" viewBox="0 0 24 24" fill="none" xmlns="http://www.w3.org/2000/svg">
<g clip-path="url(#clip0_17_81)">
<path fill-rule="evenodd" clip-rule="evenodd" d="M20.25 5.25V10.875C20.25 11.0821 20.0821 11.25 19.875 11.25H12.75V4.125C12.75 3.91789 12.9179 3.75 13.125 3.75H18.75C19.5784 3.75 20.25 4.42157 20.25 5.25V5.25ZM10.875 3.75H5.25C4.42157 3.75 3.75 4.42157 3.75 5.25V10.875C3.75 11.0821 3.91789 11.25 4.125 11.25H11.25V4.125C11.25 3.91789 11.0821 3.75 10.875 3.75V3.75ZM19.875 12.75H12.75V19.875C12.75 20.0821 12.9179 20.25 13.125 20.25H18.75C19.5784 20.25 20.25 19.5784 20.25 18.75V13.125C20.25 12.9179 20.0821 12.75 19.875 12.75V12.75ZM3.75 13.125V18.75C3.75 19.5784 4.42157 20.25 5.25 20.25H10.875C11.0821 20.25 11.25 20.0821 11.25 19.875V12.75H4.125C3.91789 12.75 3.75 12.9179 3.75 13.125V13.125Z" fill="#1C0D0D"/>
</g>
<defs>
<clipPath id="clip0_17_81">
<rect width="24" height="24" fill="white"/>
</clipPath>
</defs>
</svg>
