<svg xmlns="http://www.w3.org/2000/svg" viewBox="0 0 72 72" fill="none">
  <circle cx="36" cy="36" r="34" fill="rgba(255,215,0,0.1)" stroke="rgba(255,215,0,0.35)" stroke-width="1.5"/>
  <!-- bulb glass -->
  <path d="M36 14a13 13 0 0 1 9 22.5V40a2 2 0 0 1-2 2H29a2 2 0 0 1-2-2v-3.5A13 13 0 0 1 36 14z" fill="rgba(255,215,0,0.55)" stroke="rgba(255,215,0,0.95)" stroke-width="1.5"/>
  <!-- bulb base segments -->
  <line x1="30" y1="44" x2="42" y2="44" stroke="rgba(255,215,0,0.7)" stroke-width="1.5" stroke-linecap="round"/>
  <line x1="31" y1="47" x2="41" y2="47" stroke="rgba(255,215,0,0.6)" stroke-width="1.5" stroke-linecap="round"/>
  <line x1="33" y1="50" x2="39" y2="50" stroke="rgba(255,215,0,0.5)" stroke-width="1.5" stroke-linecap="round"/>
  <!-- filament glow -->
  <path d="M33 30 Q34 27 36 29 Q38 31 39 28" stroke="rgba(255,255,255,0.7)" stroke-width="1.5" stroke-linecap="round" fill="none"/>
  <!-- sparkles -->
  <path d="M56 20l1 3 3 1-3 1-1 3-1-3-3-1 3-1z" fill="rgba(255,215,0,0.9)"/>
  <path d="M14 26l0.8 2.4 2.4 0.8-2.4 0.8L14 32.4l-0.8-2.4-2.4-0.8 2.4-0.8z" fill="rgba(255,215,0,0.7)"/>
  <circle cx="18" cy="18" r="2" fill="rgba(255,215,0,0.55)"/>
  <circle cx="56" cy="50" r="1.5" fill="rgba(255,215,0,0.5)"/>
</svg>
