<svg xmlns="http://www.w3.org/2000/svg" viewBox="0 0 72 72" fill="none">
  <circle cx="36" cy="36" r="34" fill="#fef3c7" stroke="#fde68a" stroke-width="1.5"/>
  <path d="M36 14a13 13 0 0 1 9 22.5V40a2 2 0 0 1-2 2H29a2 2 0 0 1-2-2v-3.5A13 13 0 0 1 36 14z" fill="#fbbf24" stroke="#d97706" stroke-width="1.5"/>
  <line x1="30" y1="44" x2="42" y2="44" stroke="#d97706" stroke-width="1.5" stroke-linecap="round"/>
  <line x1="31" y1="47" x2="41" y2="47" stroke="#d97706" stroke-width="1.5" stroke-linecap="round"/>
  <line x1="33" y1="50" x2="39" y2="50" stroke="#d97706" stroke-width="1.5" stroke-linecap="round"/>
  <path d="M33 30 Q34 27 36 29 Q38 31 39 28" stroke="#fff" stroke-width="1.8" stroke-linecap="round" fill="none"/>
  <path d="M56 20l1 3 3 1-3 1-1 3-1-3-3-1 3-1z" fill="#a855f7"/>
  <path d="M14 26l0.8 2.4 2.4 0.8-2.4 0.8L14 32.4l-0.8-2.4-2.4-0.8 2.4-0.8z" fill="#a855f7"/>
  <circle cx="18" cy="18" r="2" fill="#f87171"/>
  <circle cx="56" cy="50" r="1.5" fill="#34d399"/>
</svg>
