<svg xmlns="http://www.w3.org/2000/svg" viewBox="0 0 72 72" fill="none">
  <circle cx="36" cy="36" r="34" fill="rgba(80,180,255,0.1)" stroke="rgba(80,180,255,0.35)" stroke-width="1.5"/>
  <!-- flask neck -->
  <rect x="30" y="12" width="12" height="16" rx="2" fill="rgba(255,255,255,0.2)" stroke="rgba(255,255,255,0.8)" stroke-width="1.5"/>
  <!-- flask body -->
  <path d="M30 28 L18 52 Q17 56 21 56 L51 56 Q55 56 54 52 L42 28 Z" fill="rgba(80,180,255,0.35)" stroke="rgba(255,255,255,0.8)" stroke-width="1.5" stroke-linejoin="round"/>
  <!-- liquid fill -->
  <path d="M22 48 Q24 44 30 46 Q36 48 42 44 Q47 41 50 46 L51 52 Q55 56 51 56 L21 56 Q17 56 18 52 Z" fill="rgba(80,180,255,0.7)"/>
  <!-- bubbles -->
  <circle cx="30" cy="50" r="2.5" fill="rgba(255,255,255,0.5)"/>
  <circle cx="40" cy="46" r="1.8" fill="rgba(255,255,255,0.4)"/>
  <circle cx="35" cy="52" r="1.5" fill="rgba(255,255,255,0.35)"/>
  <!-- flask rim -->
  <rect x="28" y="11" width="16" height="3" rx="1.5" fill="rgba(255,255,255,0.9)"/>
  <!-- sparkle -->
  <path d="M56 18l1 3 3 1-3 1-1 3-1-3-3-1 3-1z" fill="rgba(255,215,0,0.8)"/>
  <circle cx="16" cy="22" r="2" fill="rgba(80,200,255,0.6)"/>
</svg>
